<svg xmlns="http://www.w3.org/2000/svg" viewBox="0 0 1200 262" role="img" aria-label="Percurso: PORTFÓLIO, ROULETTE, EXPERIMENTAR, EVOLUIR">
<defs><linearGradient id="bg" x2="1" y2="0"><stop stop-color="#111a25"/><stop offset="1" stop-color="#142b32"/></linearGradient></defs><rect width="1200" height="262" rx="18" fill="url(#bg)"/>
<text x="36" y="35" fill="#22D3EE" font-family="Arial,sans-serif" font-size="13" font-weight="bold" letter-spacing="2">COMO FUNCIONA</text><rect x="35" y="57" width="243" height="142" rx="13" fill="#192b34" stroke="#22D3EE" stroke-opacity=".8"/><rect x="52" y="76" width="38" height="25" rx="7" fill="#22D3EE" fill-opacity=".15"/><text x="63" y="94" font-family="monospace" font-size="15" fill="#22D3EE">1</text><text x="52" y="132" fill="#f0f7f8" font-family="Arial,sans-serif" font-weight="bold" font-size="18">PORTFÓLIO</text><text x="52" y="161" fill="#b8cbd1" font-family="Arial,sans-serif" font-size="15">Página principal</text><path d="M288 128h32m-8-7 8 7-8 7" stroke="#A78BFA" fill="none" stroke-width="2"/><rect x="332" y="57" width="243" height="142" rx="13" fill="#192b34" stroke="#22D3EE" stroke-opacity=".35"/><rect x="349" y="76" width="38" height="25" rx="7" fill="#22D3EE" fill-opacity=".15"/><text x="360" y="94" font-family="monospace" font-size="15" fill="#22D3EE">2</text><text x="349" y="132" fill="#f0f7f8" font-family="Arial,sans-serif" font-weight="bold" font-size="18">ROULETTE</text><text x="349" y="161" fill="#b8cbd1" font-family="Arial,sans-serif" font-size="15">Simulação visual</text><path d="M585 128h32m-8-7 8 7-8 7" stroke="#A78BFA" fill="none" stroke-width="2"/><rect x="629" y="57" width="243" height="142" rx="13" fill="#192b34" stroke="#22D3EE" stroke-opacity=".35"/><rect x="646" y="76" width="38" height="25" rx="7" fill="#22D3EE" fill-opacity=".15"/><text x="657" y="94" font-family="monospace" font-size="15" fill="#22D3EE">3</text><text x="646" y="132" fill="#f0f7f8" font-family="Arial,sans-serif" font-weight="bold" font-size="18">EXPERIMENTAR</text><text x="646" y="161" fill="#b8cbd1" font-family="Arial,sans-serif" font-size="15">Interações e animação</text><path d="M882 128h32m-8-7 8 7-8 7" stroke="#A78BFA" fill="none" stroke-width="2"/><rect x="926" y="57" width="243" height="142" rx="13" fill="#192b34" stroke="#22D3EE" stroke-opacity=".35"/><rect x="943" y="76" width="38" height="25" rx="7" fill="#22D3EE" fill-opacity=".15"/><text x="954" y="94" font-family="monospace" font-size="15" fill="#22D3EE">4</text><text x="943" y="132" fill="#f0f7f8" font-family="Arial,sans-serif" font-weight="bold" font-size="18">EVOLUIR</text><text x="943" y="161" fill="#b8cbd1" font-family="Arial,sans-serif" font-size="15">Novas ideias</text>
<text x="36" y="231" fill="#aebfc7" font-family="Arial,sans-serif" font-size="14">A pasta snake contém apenas uma estrutura inicial; os restantes cartões não são produtos lançados.</text></svg>